<svg version="1.1" id="Layer_1" xmlns="http://www.w3.org/2000/svg" xmlns:xlink="http://www.w3.org/1999/xlink" x="0px" y="0px"
	 width="100%" viewBox="0 0 471 260" enable-background="new 0 0 471 260" xml:space="preserve">
<path fill="#FFFFFF" opacity="1.000000" stroke="none" 
	d="
M358.000000,261.000000 
	C238.707306,261.000000 119.914604,261.000000 1.060953,261.000000 
	C1.060953,174.403641 1.060953,87.807228 1.060953,1.105407 
	C157.875977,1.105407 314.752045,1.105407 471.814056,1.105407 
	C471.814056,87.666336 471.814056,174.333145 471.814056,261.000000 
	C434.140625,261.000000 396.320312,261.000000 358.000000,261.000000 
M166.995239,251.503006 
	C178.033997,252.649200 189.065918,254.687698 200.112793,254.772171 
	C231.670364,255.013474 263.245239,256.128815 294.688202,251.220764 
	C329.830170,245.735367 363.361450,236.018143 393.984558,217.495987 
	C411.884949,206.669083 427.153931,193.057922 438.252014,175.125519 
	C447.648834,159.942032 449.217957,143.205032 449.200165,125.738106 
	C449.177032,103.064438 440.502350,84.443260 425.641724,68.163933 
	C407.142731,47.898960 383.839325,34.932568 358.650482,25.122330 
	C326.818573,12.724858 293.534912,6.402358 259.574982,5.317377 
	C228.052155,4.310258 196.446625,3.883545 165.008743,8.809925 
	C129.699371,14.342979 96.013954,24.179285 65.319786,42.907600 
	C47.769974,53.615776 32.792458,67.083504 21.852903,84.710938 
	C12.432755,99.890083 10.809641,116.596672 10.796317,134.066681 
	C10.778876,156.935928 19.536955,175.679901 34.570084,192.055511 
	C50.380733,209.278122 69.811859,221.268875 91.064735,230.530716 
	C115.103745,241.006714 140.139069,247.892197 166.995239,251.503006 
z"/>
<path fill="#D0C3F1" opacity="1.000000" stroke="none" 
	d="
M166.572876,251.363159 
	C140.139069,247.892197 115.103745,241.006714 91.064735,230.530716 
	C69.811859,221.268875 50.380733,209.278122 34.570084,192.055511 
	C19.536955,175.679901 10.778876,156.935928 10.796317,134.066681 
	C10.809641,116.596672 12.432755,99.890083 21.852903,84.710938 
	C32.792458,67.083504 47.769974,53.615776 65.319786,42.907600 
	C96.013954,24.179285 129.699371,14.342979 165.008743,8.809925 
	C196.446625,3.883545 228.052155,4.310258 259.574982,5.317377 
	C293.534912,6.402358 326.818573,12.724858 358.650482,25.122330 
	C383.839325,34.932568 407.142731,47.898960 425.641724,68.163933 
	C440.502350,84.443260 449.177032,103.064438 449.200165,125.738106 
	C449.217957,143.205032 447.648834,159.942032 438.252014,175.125519 
	C427.153931,193.057922 411.884949,206.669083 393.984558,217.495987 
	C363.361450,236.018143 329.830170,245.735367 294.688202,251.220764 
	C263.245239,256.128815 231.670364,255.013474 200.112793,254.772171 
	C189.065918,254.687698 178.033997,252.649200 166.572876,251.363159 
M167.082443,126.208748 
	C167.044846,125.805359 167.007248,125.401978 167.213745,124.508003 
	C167.521393,124.055573 167.829025,123.603134 168.886765,123.088669 
	C170.856705,121.594368 172.929672,120.207054 174.698334,118.503738 
	C175.004288,118.209091 174.079437,115.734894 173.622879,115.703026 
	C171.414261,115.548866 169.171402,115.884888 166.473465,116.022560 
	C166.473465,116.022560 166.014297,116.112396 165.644775,115.552002 
	C164.120346,116.393883 162.595901,117.235764 161.047028,118.064056 
	C161.047028,118.064056 161.075516,118.071907 160.341537,118.163345 
	C159.283020,119.962158 157.415558,121.718208 157.317780,123.567810 
	C157.025391,129.099167 152.113907,128.128387 149.237961,129.955872 
	C146.930634,131.422073 144.655487,131.707565 142.898087,128.300293 
	C140.967682,123.995895 144.103378,122.170326 146.755615,119.882812 
	C147.788284,118.992157 148.929382,116.613083 148.484802,115.963654 
	C147.590607,114.657394 145.706223,113.591637 144.103088,113.376808 
	C143.184357,113.253685 142.015549,114.996788 140.505310,115.942589 
	C140.505310,115.942589 140.062851,115.832153 139.958359,115.272270 
	C139.277390,115.432228 138.596405,115.592178 137.322510,115.905708 
	C136.623169,116.322060 135.923813,116.738411 134.621124,117.063072 
	C134.387665,117.704002 134.154205,118.344933 133.822723,119.735687 
	C133.583496,121.487961 133.344254,123.240242 132.577042,125.038315 
	C132.332001,125.285301 132.086960,125.532288 130.973740,125.867447 
	C127.730667,126.285660 124.444817,126.498795 121.253334,127.164391 
	C114.411041,128.591370 107.617470,130.251984 99.998627,131.865326 
	C95.723404,132.243149 91.450485,132.626328 88.035477,136.797897 
	C85.647713,139.037506 83.165619,141.190475 80.957550,143.595062 
	C80.551170,144.037628 81.076775,146.251617 81.481056,146.347641 
	C82.599915,146.613403 84.523514,146.632736 84.983818,145.962723 
	C86.612030,143.592697 87.761810,140.893997 89.734467,137.930435 
	C93.815613,136.274811 97.896759,134.619186 102.852051,132.988113 
	C112.988739,131.073135 123.125427,129.158173 133.558319,127.213684 
	C133.558319,127.213684 133.829758,127.091484 134.154739,127.515099 
	C134.265274,127.851807 134.375824,128.188522 134.155228,129.344589 
	C134.055817,132.198044 133.956406,135.051483 133.182114,138.000916 
	C131.791901,138.796417 130.401703,139.591904 128.321243,140.338760 
	C124.214897,141.838455 123.063866,145.279327 124.403145,148.745499 
	C126.241730,153.503937 131.073532,153.123413 135.135544,152.878342 
	C138.958344,152.647705 144.060745,154.884369 145.768860,148.727280 
	C145.768860,148.727280 145.787109,148.850815 146.521683,148.949905 
	C147.014252,148.965469 147.506821,148.981049 148.403885,149.520325 
	C149.257248,149.681641 150.110611,149.842957 151.355179,150.593674 
	C155.734329,154.755585 160.700012,154.990326 166.517868,152.628067 
	C166.852295,152.559158 167.186707,152.490250 168.259033,152.710052 
	C174.723221,150.444855 175.894897,145.391586 172.009872,135.558228 
	C173.711624,134.447403 175.481003,133.292435 177.988480,132.113235 
	C178.980377,132.017395 179.972260,131.921539 181.050568,132.594467 
	C181.720139,134.646683 182.303528,136.731964 183.075531,138.744888 
	C185.339096,144.646988 189.226761,149.701935 195.429718,150.724792 
	C207.633255,152.737137 219.994263,154.018677 232.340790,154.853073 
	C239.405701,155.330521 246.567581,154.243317 253.690872,154.030136 
	C258.849976,153.875763 264.092865,154.558426 269.164032,153.873276 
	C277.425079,152.757187 285.562012,150.747833 293.781952,149.287979 
	C296.585754,148.790024 299.840363,146.295334 302.131989,150.456070 
	C302.237823,150.648178 303.615845,150.139557 304.911926,149.954681 
	C307.602264,148.949692 310.292633,147.944702 313.727692,146.938446 
	C317.473572,149.488190 321.347290,151.221146 326.042725,149.541336 
	C327.047394,149.181900 328.433075,149.265717 329.442627,149.659546 
	C332.332764,150.786987 333.660187,149.438049 335.021423,146.463623 
	C335.648346,145.645248 336.275269,144.826874 337.139404,143.698822 
	C338.627380,145.660431 339.891724,147.327271 340.700348,149.132950 
	C340.765320,149.513184 340.830261,149.893417 340.895203,150.273651 
	C341.264069,150.076904 341.632935,149.880157 342.688843,150.043716 
	C343.451508,149.966385 344.214172,149.889053 345.463409,150.215256 
	C346.643036,150.088394 347.822693,149.961533 349.675720,149.959229 
	C350.129059,149.921860 350.582428,149.884476 351.487946,150.244720 
	C352.537170,148.380386 353.586395,146.516052 354.960907,144.073715 
	C357.680908,143.545486 361.225220,142.857178 364.759094,143.017853 
	C364.764923,145.007492 364.770752,146.997116 364.404694,149.493530 
	C370.775391,152.250809 377.411499,150.892395 377.115417,146.891647 
	C369.836761,148.012253 369.663147,147.893860 370.894775,142.137192 
	C372.392670,141.976074 373.890533,141.814957 375.388397,141.653854 
	C375.058380,141.153122 374.728333,140.652405 375.008301,139.758347 
	C375.838745,138.901398 376.669189,138.044449 377.499634,137.187500 
	C377.251099,136.748917 377.002563,136.310333 376.754028,135.871750 
	C373.834412,136.329758 370.914795,136.787766 367.283295,136.937927 
	C366.523010,137.018707 365.762756,137.099503 364.676971,136.751755 
	C362.778473,136.845718 360.879974,136.939697 358.087769,136.869064 
	C355.058960,136.862396 352.030151,136.855743 348.511078,136.493652 
	C347.981842,137.281158 347.005890,138.067429 347.003723,138.856400 
	C346.995880,141.694748 347.316650,144.534012 347.513306,147.372925 
	C347.151794,147.462967 346.790283,147.552994 346.428772,147.643021 
	C344.574554,144.816925 342.720337,141.990829 340.666168,138.730621 
	C340.666168,138.730621 340.426880,138.316895 340.562683,137.609680 
	C336.432434,135.250168 334.439575,135.692291 333.901550,139.598770 
	C332.641693,142.172409 331.381866,144.746063 329.491608,147.411118 
	C329.038116,147.359970 328.551422,147.176392 328.136810,147.280350 
	C326.226105,147.759445 323.184082,149.294174 322.652710,148.667007 
	C321.032715,146.754807 320.007843,144.074661 319.645630,141.564346 
	C319.565002,141.005692 323.100372,139.776703 325.062866,139.139587 
	C325.937622,138.855606 327.040131,139.273071 328.514069,139.419281 
	C328.051880,138.562119 327.910797,137.838440 327.488617,137.587341 
	C321.912567,134.270920 314.950745,137.716721 314.151245,144.083664 
	C314.067505,144.750595 313.404327,145.344772 312.872772,145.280289 
	C309.990875,143.522003 307.108978,141.763718 305.020538,140.002594 
	C307.517426,140.149582 310.014343,140.296585 312.511230,140.443573 
	C312.683014,139.830322 312.854767,139.217072 313.026520,138.603821 
	C311.515991,137.867844 310.005432,137.131851 308.424072,136.424240 
	C308.424072,136.424240 308.358368,136.463043 308.711731,135.741211 
	C311.041321,130.869080 306.994293,123.703049 300.890930,121.348938 
	C290.702972,117.419357 280.269104,115.708107 269.423035,115.982948 
	C267.347900,116.035538 264.789124,116.590309 265.800720,112.996880 
	C266.865479,112.975655 267.930206,112.954430 269.730225,112.663086 
	C280.126770,111.104286 290.475952,108.797279 300.929260,108.135796 
	C325.991882,106.549820 350.057983,111.497208 373.260254,120.965851 
	C375.098663,121.716064 377.276520,121.634506 379.296600,121.939514 
	C379.348694,121.502136 379.400818,121.064758 379.452911,120.627380 
	C373.335449,118.163101 367.330566,115.356087 361.078308,113.301964 
	C345.415161,108.155945 329.221039,104.789101 312.793335,105.292007 
	C298.158020,105.740051 283.590576,108.406265 268.167145,110.055740 
	C253.556488,111.712318 238.970215,113.660934 224.323410,114.884949 
	C218.275284,115.390388 212.097198,114.340851 205.940918,113.496933 
	C205.925888,113.329918 205.910843,113.162895 206.012695,112.605217 
	C206.012695,112.605217 206.074631,112.202194 206.746063,112.020317 
	C208.930542,109.389999 211.658218,107.038048 213.180084,104.068176 
	C215.882385,98.794708 213.743469,95.879875 207.813354,95.987915 
	C206.338394,96.014778 204.202560,95.754723 203.502640,96.583115 
	C198.389740,102.634476 191.960358,100.850174 185.633621,100.057549 
	C184.830826,99.956970 183.942749,100.019630 183.173004,100.259537 
	C179.175156,101.505577 178.172455,104.969002 181.432037,107.570793 
	C183.908142,109.547211 187.124023,110.596809 190.591492,112.137459 
	C190.976486,112.191490 191.361481,112.245522 192.056137,112.929306 
	C193.371048,113.282974 194.685974,113.636650 196.679184,114.039276 
	C197.133148,114.033257 197.587112,114.027237 198.053925,114.766357 
	C195.052292,117.850479 192.050674,120.934601 188.399414,124.080513 
	C187.932709,124.708466 187.466003,125.336418 186.308487,126.176132 
	C182.780807,128.080627 179.253128,129.985138 174.962021,131.883728 
	C173.018814,131.564606 171.075607,131.245468 169.060120,130.205521 
	C168.413284,129.075439 167.766449,127.945366 167.082443,126.208748 
z"/>
<path fill="#D0BDED" opacity="1.000000" stroke="none" 
	d="
M304.401367,149.957306 
	C303.615845,150.139557 302.237823,150.648178 302.131989,150.456070 
	C299.840363,146.295334 296.585754,148.790024 293.781952,149.287979 
	C285.562012,150.747833 277.425079,152.757187 269.164032,153.873276 
	C264.092865,154.558426 258.849976,153.875763 253.690872,154.030136 
	C246.567581,154.243317 239.405701,155.330521 232.340790,154.853073 
	C219.994263,154.018677 207.633255,152.737137 195.429718,150.724792 
	C189.226761,149.701935 185.339096,144.646988 183.075531,138.744888 
	C182.303528,136.731964 181.720139,134.646683 181.259766,131.970398 
	C183.960144,129.560974 188.603226,130.800980 189.352524,126.011024 
	C196.399368,125.606773 199.036972,119.911865 203.420242,115.983795 
	C224.402191,118.531883 244.753906,116.848518 265.004639,113.068146 
	C264.789124,116.590309 267.347900,116.035538 269.423035,115.982948 
	C280.269104,115.708107 290.702972,117.419357 300.890930,121.348938 
	C306.994293,123.703049 311.041321,130.869080 308.219482,136.174271 
	C306.408173,136.520920 305.089172,136.434509 303.340576,136.218567 
	C302.276642,135.074921 301.142029,134.083267 301.095337,133.042786 
	C300.902802,128.754288 298.554443,126.172874 294.787476,124.984795 
	C291.669647,124.001442 288.363342,123.133484 285.128174,123.087593 
	C270.890076,122.885635 256.647552,123.000015 242.406631,123.000183 
	C231.004974,123.000313 219.603119,122.959534 208.201752,123.016457 
	C200.872192,123.053047 195.170563,126.057365 193.738342,130.458313 
	C190.781189,139.544937 193.605087,144.831253 202.781250,146.931595 
	C205.658981,147.590302 208.670486,147.942261 211.622635,147.953674 
	C233.267471,148.037338 254.912766,147.996902 276.557922,148.000076 
	C281.857483,148.000854 286.501160,146.632751 290.724701,143.055084 
	C293.099701,141.043289 296.548981,140.299759 299.549622,139.320282 
	C302.315063,142.185593 305.045135,144.715500 307.745392,147.217758 
	C306.728607,148.050751 305.564972,149.004028 304.401367,149.957306 
z"/>
<path fill="#AAA1C0" opacity="1.000000" stroke="none" 
	d="
M268.993195,110.093544 
	C283.590576,108.406265 298.158020,105.740051 312.793335,105.292007 
	C329.221039,104.789101 345.415161,108.155945 361.078308,113.301964 
	C367.330566,115.356087 373.335449,118.163101 379.452911,120.627380 
	C379.400818,121.064758 379.348694,121.502136 379.296600,121.939514 
	C377.276520,121.634506 375.098663,121.716064 373.260254,120.965851 
	C350.057983,111.497208 325.991882,106.549820 300.929260,108.135796 
	C290.475952,108.797279 280.126770,111.104286 269.364319,112.443398 
	C268.996704,111.513657 268.994965,110.803596 268.993195,110.093544 
z"/>
<path fill="#2C2C31" opacity="1.000000" stroke="none" 
	d="
M133.105011,124.992523 
	C133.344254,123.240242 133.583496,121.487961 134.150269,119.242035 
	C134.726685,118.217178 134.975571,117.685966 135.224457,117.154770 
	C135.923813,116.738411 136.623169,116.322060 137.966187,115.947083 
	C139.094177,115.936348 139.578522,115.884247 140.062851,115.832153 
	C140.062851,115.832153 140.505310,115.942589 140.990753,116.113754 
	C137.921249,119.727631 137.976486,122.489586 141.779724,129.414948 
	C142.788086,131.175995 143.748856,132.606613 144.642685,134.375366 
	C144.950333,135.513306 145.324905,136.313095 145.657745,137.460312 
	C146.037933,138.554749 146.459869,139.301773 146.902283,140.479996 
	C146.907043,142.925125 146.891312,144.939056 146.579010,147.048126 
	C146.117325,147.712463 145.952225,148.281647 145.787109,148.850815 
	C145.787109,148.850815 145.768860,148.727280 145.385635,148.817932 
	C143.005234,149.522583 141.607635,153.688950 139.128632,149.617798 
	C139.431213,146.578735 139.479721,143.864777 139.659943,140.865204 
	C139.380051,139.934357 138.968460,139.289093 138.521393,138.595047 
	C138.485931,138.546249 138.369965,138.512970 138.243927,138.183350 
	C136.907394,134.744232 135.696884,131.634720 134.486374,128.525223 
	C134.375824,128.188522 134.265274,127.851807 134.062866,126.999771 
	C133.682343,125.987144 133.393677,125.489830 133.105011,124.992523 
z"/>
<path fill="#9891AE" opacity="1.000000" stroke="none" 
	d="
M144.709625,134.037216 
	C143.748856,132.606613 142.788086,131.175995 142.065750,129.394501 
	C142.494873,129.042603 142.685577,129.041595 142.876282,129.040573 
	C144.655487,131.707565 146.930634,131.422073 149.237961,129.955872 
	C152.113907,128.128387 157.025391,129.099167 157.317780,123.567810 
	C157.415558,121.718208 159.283020,119.962158 160.710464,118.487930 
	C158.789917,122.674950 159.727875,126.233337 161.290054,130.235611 
	C164.096695,137.426239 168.828384,144.367142 166.030075,152.785416 
	C160.700012,154.990326 155.734329,154.755585 151.172028,149.890289 
	C150.128769,143.499664 154.746750,141.413391 158.261902,139.162918 
	C161.492508,137.094604 161.588257,135.105377 160.155548,132.215408 
	C158.497086,128.870026 156.017426,129.782867 153.421692,130.811371 
	C150.543503,131.951813 147.615784,132.967316 144.709625,134.037216 
M155.901321,144.473267 
	C153.411942,146.570511 153.315720,149.212799 156.082352,150.459229 
	C158.257187,151.439026 162.278625,151.839157 163.565643,150.564346 
	C166.581177,147.577393 165.323318,143.731323 162.680786,139.984634 
	C160.499680,141.372299 158.463486,142.667770 155.901321,144.473267 
z"/>
<path fill="#A583B4" opacity="1.000000" stroke="none" 
	d="
M190.010742,112.058800 
	C187.124023,110.596809 183.908142,109.547211 181.432037,107.570793 
	C178.172455,104.969002 179.175156,101.505577 183.173004,100.259537 
	C183.942749,100.019630 184.830826,99.956970 185.633621,100.057549 
	C191.960358,100.850174 198.389740,102.634476 203.502640,96.583115 
	C204.202560,95.754723 206.338394,96.014778 207.813354,95.987915 
	C213.743469,95.879875 215.882385,98.794708 213.180084,104.068176 
	C211.658218,107.038048 208.930542,109.389999 206.379272,111.723343 
	C205.977402,110.912697 205.942337,110.399010 205.974930,109.542450 
	C206.709335,108.263748 207.678177,107.415565 207.980392,106.373970 
	C208.622955,104.159264 210.018906,100.562607 209.147202,99.814308 
	C206.698883,97.712616 203.430435,98.915390 202.045227,101.676086 
	C199.442398,106.863510 196.066238,105.618858 192.261642,103.671234 
	C191.087875,103.070366 189.864197,102.441277 188.590836,102.183815 
	C184.444778,101.345512 183.521698,102.639801 185.012573,107.328247 
	C185.393799,108.065033 185.748581,108.502769 186.445648,108.948708 
	C187.855453,109.308884 188.922989,109.660873 189.993164,110.353531 
	C190.000778,111.149071 190.005753,111.603935 190.010742,112.058800 
z"/>
<path fill="#2A2A2E" opacity="1.000000" stroke="none" 
	d="
M166.273972,152.706741 
	C168.828384,144.367142 164.096695,137.426239 161.290054,130.235611 
	C159.727875,126.233337 158.789917,122.674950 161.077454,118.442207 
	C161.075516,118.071907 161.047028,118.064056 161.409973,118.046417 
	C163.186707,117.389984 164.600510,116.751190 166.014297,116.112396 
	C166.014297,116.112396 166.473465,116.022560 166.759674,116.398483 
	C166.091476,118.508163 165.137039,120.241920 164.239166,122.295364 
	C164.582748,123.410934 164.869797,124.206818 165.077301,125.356689 
	C165.561722,126.684517 166.125717,127.658348 166.745514,128.885437 
	C167.060654,129.781082 167.319977,130.423492 167.664871,131.434204 
	C173.510941,139.557175 173.426254,147.171997 167.521133,152.421356 
	C167.186707,152.490250 166.852295,152.559158 166.273972,152.706741 
z"/>
<path fill="#CBBFEB" opacity="1.000000" stroke="none" 
	d="
M144.642685,134.375366 
	C147.615784,132.967316 150.543503,131.951813 153.421692,130.811371 
	C156.017426,129.782867 158.497086,128.870026 160.155548,132.215408 
	C161.588257,135.105377 161.492508,137.094604 158.261902,139.162918 
	C154.746750,141.413391 150.128769,143.499664 150.976425,149.595612 
	C150.110611,149.842957 149.257248,149.681641 148.175751,148.946075 
	C147.590256,147.898880 147.232925,147.425934 146.875580,146.952972 
	C146.891312,144.939056 146.907043,142.925125 147.184189,140.278915 
	C146.863571,138.802048 146.281525,137.957458 145.699478,137.112885 
	C145.324905,136.313095 144.950333,135.513306 144.642685,134.375366 
z"/>
<path fill="#A89EBC" opacity="1.000000" stroke="none" 
	d="
M268.580170,110.074646 
	C268.994965,110.803596 268.996704,111.513657 268.996704,112.578453 
	C267.930206,112.954430 266.865479,112.975655 265.402679,113.032516 
	C244.753906,116.848518 224.402191,118.531883 203.422867,115.755157 
	C202.997635,115.496750 202.997284,115.038513 203.219147,114.926605 
	C203.722168,114.614189 203.910172,114.347900 204.333847,114.004150 
	C205.101212,113.994499 205.539719,113.996529 205.978226,113.998550 
	C212.097198,114.340851 218.275284,115.390388 224.323410,114.884949 
	C238.970215,113.660934 253.556488,111.712318 268.580170,110.074646 
z"/>
<path fill="#44414B" opacity="1.000000" stroke="none" 
	d="
M334.469879,146.937195 
	C333.660187,149.438049 332.332764,150.786987 329.442627,149.659546 
	C328.433075,149.265717 327.047394,149.181900 326.042725,149.541336 
	C321.347290,151.221146 317.473572,149.488190 313.357178,146.697189 
	C312.986633,146.455933 313.009979,145.972717 313.009979,145.972717 
	C313.404327,145.344772 314.067505,144.750595 314.151245,144.083664 
	C314.950745,137.716721 321.912567,134.270920 327.488617,137.587341 
	C327.910797,137.838440 328.051880,138.562119 328.514069,139.419281 
	C327.040131,139.273071 325.937622,138.855606 325.062866,139.139587 
	C323.100372,139.776703 319.565002,141.005692 319.645630,141.564346 
	C320.007843,144.074661 321.032715,146.754807 322.652710,148.667007 
	C323.184082,149.294174 326.226105,147.759445 328.136810,147.280350 
	C328.551422,147.176392 329.038116,147.359970 329.836731,147.602112 
	C331.147736,149.009506 331.147736,149.009506 334.469879,146.937195 
z"/>
<path fill="#3D3A43" opacity="1.000000" stroke="none" 
	d="
M312.941376,145.626495 
	C313.009979,145.972717 312.986633,146.455933 312.984802,146.697815 
	C310.292633,147.944702 307.602264,148.949692 304.656647,149.955994 
	C305.564972,149.004028 306.728607,148.050751 307.745392,147.217758 
	C305.045135,144.715500 302.315063,142.185593 299.798065,139.120361 
	C301.264160,137.839401 302.517151,137.093750 303.770142,136.348099 
	C305.089172,136.434509 306.408173,136.520920 308.042786,136.535187 
	C308.358368,136.463043 308.424072,136.424240 308.370361,136.603882 
	C306.953430,137.857483 305.590271,138.931458 304.227081,140.005417 
	C307.108978,141.763718 309.990875,143.522003 312.941376,145.626495 
z"/>
<path fill="#2C2C31" opacity="1.000000" stroke="none" 
	d="
M334.745667,146.700409 
	C331.147736,149.009506 331.147736,149.009506 330.151947,147.556412 
	C331.381866,144.746063 332.641693,142.172409 334.456787,139.187897 
	C336.816956,138.623642 338.621918,138.470276 340.426880,138.316895 
	C340.426880,138.316895 340.666168,138.730621 340.778961,139.314377 
	C342.253448,143.202667 343.615143,146.507202 344.976837,149.811737 
	C344.214172,149.889053 343.451508,149.966385 342.302338,149.653473 
	C341.727875,148.989334 341.474640,148.899612 341.156128,148.994110 
	C339.891724,147.327271 338.627380,145.660431 337.139404,143.698822 
	C336.275269,144.826874 335.648346,145.645248 334.745667,146.700409 
M335.525269,140.627167 
	C335.474335,140.833969 335.423401,141.040787 335.372437,141.247589 
	C335.497009,141.115891 335.621552,140.984207 335.525269,140.627167 
z"/>
<path fill="#A299B8" opacity="1.000000" stroke="none" 
	d="
M100.803947,131.816925 
	C107.617470,130.251984 114.411041,128.591370 121.253334,127.164391 
	C124.444817,126.498795 127.730667,126.285660 131.583405,126.122551 
	C132.549423,126.666176 132.905762,126.954689 133.262115,127.243202 
	C123.125427,129.158173 112.988739,131.073135 102.279144,132.732727 
	C101.405464,132.257202 101.104706,132.037064 100.803947,131.816925 
z"/>
<path fill="#9C93B2" opacity="1.000000" stroke="none" 
	d="
M142.887177,128.670441 
	C142.685577,129.041595 142.494873,129.042603 142.018158,129.064056 
	C137.976486,122.489586 137.921249,119.727631 141.217773,116.092316 
	C142.015549,114.996788 143.184357,113.253685 144.103088,113.376808 
	C145.706223,113.591637 147.590607,114.657394 148.484802,115.963654 
	C148.929382,116.613083 147.788284,118.992157 146.755615,119.882812 
	C144.103378,122.170326 140.967682,123.995895 142.887177,128.670441 
z"/>
<path fill="#777087" opacity="1.000000" stroke="none" 
	d="
M364.769531,142.168869 
	C361.225220,142.857178 357.680908,143.545486 354.960907,144.073715 
	C353.586395,146.516052 352.537170,148.380386 351.420135,149.699280 
	C351.554504,147.364426 351.836487,145.579742 351.943146,143.784653 
	C352.207855,139.327682 357.054169,139.714432 358.981476,137.033661 
	C360.879974,136.939697 362.778473,136.845718 364.905945,137.380249 
	C365.013123,139.395462 364.891327,140.782166 364.769531,142.168869 
z"/>
<path fill="#9C93B2" opacity="1.000000" stroke="none" 
	d="
M138.874527,149.942871 
	C141.607635,153.688950 143.005234,149.522583 145.323196,148.818237 
	C144.060745,154.884369 138.958344,152.647705 135.135544,152.878342 
	C131.073532,153.123413 126.241730,153.503937 124.403145,148.745499 
	C123.063866,145.279327 124.214897,141.838455 128.609680,140.669220 
	C127.940247,142.477859 126.817146,143.877319 126.066231,145.454056 
	C125.119789,147.441330 125.460152,148.982010 128.473450,149.119843 
	C132.155884,149.495682 135.515198,149.719269 138.874527,149.942871 
z"/>
<path fill="#A299B8" opacity="1.000000" stroke="none" 
	d="
M164.182617,121.975677 
	C165.137039,120.241920 166.091476,118.508163 166.993286,116.410782 
	C169.171402,115.884888 171.414261,115.548866 173.622879,115.703026 
	C174.079437,115.734894 175.004288,118.209091 174.698334,118.503738 
	C172.929672,120.207054 170.856705,121.594368 168.286285,122.831772 
	C166.518066,122.375145 165.350342,122.175407 164.182617,121.975677 
z"/>
<path fill="#9891AE" opacity="1.000000" stroke="none" 
	d="
M167.890076,152.565704 
	C173.426254,147.171997 173.510941,139.557175 168.054886,131.396606 
	C168.617020,130.969254 168.874710,130.947800 169.132401,130.926346 
	C171.075607,131.245468 173.018814,131.564606 175.726974,131.944870 
	C176.744736,132.049820 176.997559,132.093643 177.250397,132.137451 
	C175.481003,133.292435 173.711624,134.447403 172.009872,135.558228 
	C175.894897,145.391586 174.723221,150.444855 167.890076,152.565704 
z"/>
<path fill="#AAA1C0" opacity="1.000000" stroke="none" 
	d="
M202.997284,115.038513 
	C202.997284,115.038513 202.997635,115.496750 202.995010,115.725388 
	C199.036972,119.911865 196.399368,125.606773 189.368774,126.004059 
	C188.994019,126.003067 188.988098,126.034195 189.000885,125.698257 
	C189.025482,124.914452 189.037277,124.466591 189.049072,124.018723 
	C192.050674,120.934601 195.052292,117.850479 198.408783,114.420197 
	C200.174866,114.395523 201.586075,114.717018 202.997284,115.038513 
z"/>
<path fill="#777087" opacity="1.000000" stroke="none" 
	d="
M370.098083,142.106934 
	C369.663147,147.893860 369.836761,148.012253 377.115417,146.891647 
	C377.411499,150.892395 370.775391,152.250809 365.026062,149.269562 
	C366.451202,148.031235 367.344940,147.074005 368.034943,145.987381 
	C368.817871,144.754349 369.418304,143.405457 370.098083,142.106934 
z"/>
<path fill="#4B4753" opacity="1.000000" stroke="none" 
	d="
M358.534607,136.951355 
	C357.054169,139.714432 352.207855,139.327682 351.943146,143.784653 
	C351.836487,145.579742 351.554504,147.364426 351.194031,149.500473 
	C350.582428,149.884476 350.129059,149.921860 349.285553,149.446533 
	C348.930695,144.905579 348.966034,140.877319 349.001343,136.849091 
	C352.030151,136.855743 355.058960,136.862396 358.534607,136.951355 
z"/>
<path fill="#777087" opacity="1.000000" stroke="none" 
	d="
M348.756226,136.671356 
	C348.966034,140.877319 348.930695,144.905579 348.948853,149.384247 
	C347.822693,149.961533 346.643036,150.088394 345.220123,150.013489 
	C343.615143,146.507202 342.253448,143.202667 340.878937,139.531433 
	C342.720337,141.990829 344.574554,144.816925 346.428772,147.643021 
	C346.790283,147.552994 347.151794,147.462967 347.513306,147.372925 
	C347.316650,144.534012 346.995880,141.694748 347.003723,138.856400 
	C347.005890,138.067429 347.981842,137.281158 348.756226,136.671356 
z"/>
<path fill="#A299B8" opacity="1.000000" stroke="none" 
	d="
M89.092941,138.319885 
	C87.761810,140.893997 86.612030,143.592697 84.983818,145.962723 
	C84.523514,146.632736 82.599915,146.613403 81.481056,146.347641 
	C81.076775,146.251617 80.551170,144.037628 80.957550,143.595062 
	C83.165619,141.190475 85.647713,139.037506 88.494171,137.152222 
	C88.999565,137.777664 89.046257,138.048782 89.092941,138.319885 
z"/>
<path fill="#2C2C31" opacity="1.000000" stroke="none" 
	d="
M370.496429,142.122070 
	C369.418304,143.405457 368.817871,144.754349 368.034943,145.987381 
	C367.344940,147.074005 366.451202,148.031235 365.212036,149.016174 
	C364.770752,146.997116 364.764923,145.007492 364.764313,142.593353 
	C364.891327,140.782166 365.013123,139.395462 365.068665,137.594528 
	C365.762756,137.099503 366.523010,137.018707 367.690063,137.340881 
	C368.388794,138.152145 368.680817,138.560440 368.981445,138.981171 
	C368.990051,138.993591 368.968048,138.975449 368.711060,139.026367 
	C368.619446,139.396347 368.784821,139.715393 369.191528,140.304459 
	C371.126099,140.414948 372.819275,140.255432 374.472595,140.086609 
	C374.432678,140.077316 374.398315,140.151672 374.398315,140.151672 
	C374.728333,140.652405 375.058380,141.153122 375.388428,141.653839 
	C373.890533,141.814957 372.392670,141.976074 370.496429,142.122070 
z"/>
<path fill="#978EAB" opacity="1.000000" stroke="none" 
	d="
M177.619446,132.125336 
	C176.997559,132.093643 176.744736,132.049820 176.108688,131.947815 
	C179.253128,129.985138 182.780807,128.080627 186.985657,126.097824 
	C188.104568,126.024406 188.546341,126.029305 188.988098,126.034195 
	C188.988098,126.034195 188.994019,126.003067 188.977753,126.010033 
	C188.603226,130.800980 183.960144,129.560974 181.216568,131.585999 
	C179.972260,131.921539 178.980377,132.017395 177.619446,132.125336 
z"/>
<path fill="#978EAB" opacity="1.000000" stroke="none" 
	d="
M89.413704,138.125153 
	C89.046257,138.048782 88.999565,137.777664 88.858673,137.102417 
	C91.450485,132.626328 95.723404,132.243149 100.401291,131.841125 
	C101.104706,132.037064 101.405464,132.257202 101.842072,132.720444 
	C97.896759,134.619186 93.815613,136.274811 89.413704,138.125153 
z"/>
<path fill="#978EAB" opacity="1.000000" stroke="none" 
	d="
M128.150360,148.967621 
	C125.460152,148.982010 125.119789,147.441330 126.066231,145.454056 
	C126.817146,143.877319 127.940247,142.477859 128.954803,140.693542 
	C130.401703,139.591904 131.791901,138.796417 133.767487,138.084167 
	C134.571396,138.460480 134.789917,138.753510 134.746063,139.245407 
	C131.989563,142.363983 127.088692,143.683167 128.150360,148.967621 
z"/>
<path fill="#777087" opacity="1.000000" stroke="none" 
	d="
M374.703308,139.955017 
	C374.398315,140.151672 374.432678,140.077316 374.229431,139.732864 
	C372.341736,139.248520 370.657288,139.108627 368.972809,138.968735 
	C368.680817,138.560440 368.388794,138.152145 368.045990,137.494812 
	C370.914795,136.787766 373.834412,136.329758 376.754028,135.871750 
	C377.002563,136.310333 377.251099,136.748917 377.499634,137.187500 
	C376.669189,138.044449 375.838745,138.901398 374.703308,139.955017 
z"/>
<path fill="#B17CB9" opacity="1.000000" stroke="none" 
	d="
M203.219147,114.926605 
	C201.586075,114.717018 200.174866,114.395523 198.402374,114.047623 
	C197.587112,114.027237 197.133148,114.033257 196.231873,113.755646 
	C195.524200,112.975777 195.263809,112.479530 195.437943,111.981850 
	C199.217392,111.282051 202.562332,110.583687 205.907272,109.885330 
	C205.942337,110.399010 205.977402,110.912697 206.043549,111.814285 
	C206.074631,112.202194 206.012695,112.605217 205.670105,112.826195 
	C204.886673,113.370056 204.445831,113.692947 204.004990,114.015839 
	C203.910172,114.347900 203.722168,114.614189 203.219147,114.926605 
z"/>
<path fill="#D4B3E8" opacity="1.000000" stroke="none" 
	d="
M304.623810,140.003998 
	C305.590271,138.931458 306.953430,137.857483 308.405762,136.589691 
	C310.005432,137.131851 311.515991,137.867844 313.026520,138.603821 
	C312.854767,139.217072 312.683014,139.830322 312.511230,140.443573 
	C310.014343,140.296585 307.517426,140.149582 304.623810,140.003998 
z"/>
<path fill="#9C93B2" opacity="1.000000" stroke="none" 
	d="
M135.008438,139.046555 
	C134.789917,138.753510 134.571396,138.460480 134.104935,138.036194 
	C133.956406,135.051483 134.055817,132.198044 134.320801,128.934906 
	C135.696884,131.634720 136.907394,134.744232 137.839783,138.334534 
	C136.710587,138.892410 135.859512,138.969482 135.008438,139.046555 
z"/>
<path fill="#777087" opacity="1.000000" stroke="none" 
	d="
M340.494781,137.963287 
	C338.621918,138.470276 336.816956,138.623642 334.682861,138.882080 
	C334.439575,135.692291 336.432434,135.250168 340.494781,137.963287 
z"/>
<path fill="#9891AE" opacity="1.000000" stroke="none" 
	d="
M165.829529,115.832199 
	C164.600510,116.751190 163.186707,117.389984 161.422195,118.053207 
	C162.595901,117.235764 164.120346,116.393883 165.829529,115.832199 
z"/>
<path fill="#978EAB" opacity="1.000000" stroke="none" 
	d="
M164.239166,122.295364 
	C165.350342,122.175407 166.518066,122.375145 167.911224,122.862793 
	C167.829025,123.603134 167.521393,124.055573 166.789795,124.753883 
	C165.962860,125.000740 165.559845,125.001717 165.156845,125.002693 
	C164.869797,124.206818 164.582748,123.410934 164.239166,122.295364 
z"/>
<path fill="#A583B4" opacity="1.000000" stroke="none" 
	d="
M195.003433,111.983284 
	C195.263809,112.479530 195.524200,112.975777 195.892731,113.731171 
	C194.685974,113.636650 193.371048,113.282974 191.983398,112.510742 
	C191.910675,112.092171 192.061996,111.883209 192.428436,111.905579 
	C193.531052,111.946396 194.267242,111.964844 195.003433,111.983284 
z"/>
<path fill="#9891AE" opacity="1.000000" stroke="none" 
	d="
M165.077301,125.356689 
	C165.559845,125.001717 165.962860,125.000740 166.667755,124.999176 
	C167.007248,125.401978 167.044846,125.805359 167.005539,126.969757 
	C166.848999,128.031235 166.769348,128.331711 166.689697,128.632187 
	C166.125717,127.658348 165.561722,126.684517 165.077301,125.356689 
z"/>
<path fill="#A299B8" opacity="1.000000" stroke="none" 
	d="
M166.745514,128.885437 
	C166.769348,128.331711 166.848999,128.031235 167.024139,127.273026 
	C167.766449,127.945366 168.413284,129.075439 169.096252,130.565933 
	C168.874710,130.947800 168.617020,130.969254 167.969315,131.028290 
	C167.319977,130.423492 167.060654,129.781082 166.745514,128.885437 
z"/>
<path fill="#777087" opacity="1.000000" stroke="none" 
	d="
M340.928223,149.063522 
	C341.474640,148.899612 341.727875,148.989334 341.958801,149.473328 
	C341.632935,149.880157 341.264069,150.076904 340.895203,150.273651 
	C340.830261,149.893417 340.765320,149.513184 340.928223,149.063522 
z"/>
<path fill="#C4B9E2" opacity="1.000000" stroke="none" 
	d="
M146.579010,147.048126 
	C147.232925,147.425934 147.590256,147.898880 147.973495,148.684235 
	C147.506821,148.981049 147.014252,148.965469 146.154388,148.900360 
	C145.952225,148.281647 146.117325,147.712463 146.579010,147.048126 
z"/>
<path fill="#A299B8" opacity="1.000000" stroke="none" 
	d="
M134.922791,117.108917 
	C134.975571,117.685966 134.726685,118.217178 134.199280,118.867126 
	C134.154205,118.344933 134.387665,117.704002 134.922791,117.108917 
z"/>
<path fill="#B17CB9" opacity="1.000000" stroke="none" 
	d="
M190.301117,112.098129 
	C190.005753,111.603935 190.000778,111.149071 190.309433,110.386963 
	C191.102722,110.680878 191.582367,111.282043 192.061996,111.883209 
	C192.061996,111.883209 191.910675,112.092171 191.828583,112.195862 
	C191.361481,112.245522 190.976486,112.191490 190.301117,112.098129 
z"/>
<path fill="#A299B8" opacity="1.000000" stroke="none" 
	d="
M140.010605,115.552208 
	C139.578522,115.884247 139.094177,115.936348 138.262634,115.870285 
	C138.596405,115.592178 139.277390,115.432228 140.010605,115.552208 
z"/>
<path fill="#9C93B2" opacity="1.000000" stroke="none" 
	d="
M133.410217,127.228439 
	C132.905762,126.954689 132.549423,126.666176 132.017502,126.078461 
	C132.086960,125.532288 132.332001,125.285301 132.841034,125.015419 
	C133.393677,125.489830 133.682343,125.987144 133.900375,126.787964 
	C133.829758,127.091484 133.558319,127.213684 133.410217,127.228439 
z"/>
<path fill="#D0BDED" opacity="1.000000" stroke="none" 
	d="
M189.000885,125.698257 
	C188.546341,126.029305 188.104568,126.024406 187.331055,125.991943 
	C187.466003,125.336418 187.932709,124.708466 188.724243,124.049622 
	C189.037277,124.466591 189.025482,124.914452 189.000885,125.698257 
z"/>
<path fill="#A583B4" opacity="1.000000" stroke="none" 
	d="
M204.333847,114.004158 
	C204.445831,113.692947 204.886673,113.370056 205.611664,113.021523 
	C205.910843,113.162895 205.925888,113.329918 205.959564,113.747742 
	C205.539719,113.996529 205.101212,113.994499 204.333847,114.004158 
z"/>
<path fill="#D4B3E8" opacity="1.000000" stroke="none" 
	d="
M303.340576,136.218567 
	C302.517151,137.093750 301.264160,137.839401 299.762726,138.784958 
	C296.548981,140.299759 293.099701,141.043289 290.724701,143.055084 
	C286.501160,146.632751 281.857483,148.000854 276.557922,148.000076 
	C254.912766,147.996902 233.267471,148.037338 211.622635,147.953674 
	C208.670486,147.942261 205.658981,147.590302 202.781250,146.931595 
	C193.605087,144.831253 190.781189,139.544937 193.738342,130.458313 
	C195.170563,126.057365 200.872192,123.053047 208.201752,123.016457 
	C219.603119,122.959534 231.004974,123.000313 242.406631,123.000183 
	C256.647552,123.000015 270.890076,122.885635 285.128174,123.087593 
	C288.363342,123.133484 291.669647,124.001442 294.787476,124.984795 
	C298.554443,126.172874 300.902802,128.754288 301.095337,133.042786 
	C301.142029,134.083267 302.276642,135.074921 303.340576,136.218567 
M254.661026,144.002167 
	C255.104462,144.005737 255.547913,144.009308 256.329163,144.497650 
	C256.883270,144.660370 257.437347,144.823105 258.801575,144.994904 
	C260.534393,144.661240 262.267181,144.327560 264.824799,143.982483 
	C267.881989,143.657135 270.939148,143.331787 274.497803,143.543228 
	C276.339417,143.376877 278.181061,143.210510 280.764679,142.994797 
	C281.510193,142.994736 282.255707,142.994659 283.733887,142.988205 
	C285.806976,140.915024 287.880035,138.841827 290.280853,136.345413 
	C290.787994,136.208359 291.295105,136.071304 292.599304,135.975052 
	C294.048065,134.542557 295.496857,133.110046 296.945618,131.677551 
	C295.283264,130.466431 293.620911,129.255295 291.990387,127.996780 
	C291.990387,127.996780 291.978424,128.051880 291.592224,127.493568 
	C290.715515,127.341164 289.838806,127.188759 288.965149,127.042336 
	C288.965149,127.042336 288.942383,127.069077 288.404449,126.433968 
	C277.600464,126.293106 266.796448,126.152245 255.265671,126.082748 
	C253.179184,126.714233 251.092682,127.345711 248.857620,127.244125 
	C247.237686,126.830681 245.617752,126.417229 243.123444,125.999664 
	C241.083252,126.001877 239.043045,126.004089 236.218964,126.014519 
	C233.478165,126.012047 230.737381,126.009575 227.091354,125.999954 
	C223.726151,126.330009 220.360931,126.660065 216.257782,126.981987 
	C214.835892,126.661903 213.414017,126.341820 211.135193,126.008408 
	C208.766388,126.338997 206.397568,126.669586 204.019775,127.441353 
	C204.019775,127.441353 204.013153,127.882568 203.383743,128.009094 
	C202.601822,128.337357 201.819901,128.665619 200.304214,129.123047 
	C199.876938,130.083374 198.824005,131.377747 199.128204,131.947525 
	C200.629684,134.759628 200.262222,137.268738 199.217804,140.140152 
	C198.910461,140.985107 200.811707,143.713943 201.835342,143.790970 
	C209.803619,144.390411 217.804413,144.565155 225.796967,144.812347 
	C226.182922,144.824295 226.585938,144.285049 227.777267,143.904404 
	C230.192688,143.607437 232.608093,143.310486 235.574692,143.592453 
	C238.714966,143.401794 241.855225,143.211136 245.874054,143.004959 
	C247.938538,143.001968 250.003036,142.998978 252.552475,143.018921 
	C252.552475,143.018921 253.035553,143.067307 253.232773,143.486145 
	C253.431030,143.739914 253.685349,143.909775 254.661026,144.002167 
z"/>
<path fill="#CBBFEB" opacity="1.000000" stroke="none" 
	d="
M134.746063,139.245407 
	C135.859512,138.969482 136.710587,138.892410 137.965820,138.664154 
	C138.369965,138.512970 138.485931,138.546249 138.356613,138.885086 
	C138.660934,139.866211 139.094589,140.508514 139.528229,141.150803 
	C139.479721,143.864777 139.431213,146.578735 139.128632,149.617783 
	C135.515198,149.719269 132.155884,149.495682 128.473450,149.119843 
	C127.088692,143.683167 131.989563,142.363983 134.746063,139.245407 
z"/>
<path fill="#C4B9E2" opacity="1.000000" stroke="none" 
	d="
M145.657745,137.460312 
	C146.281525,137.957458 146.863571,138.802048 147.163712,139.847702 
	C146.459869,139.301773 146.037933,138.554749 145.657745,137.460312 
z"/>
<path fill="#9C93B2" opacity="1.000000" stroke="none" 
	d="
M139.659943,140.865204 
	C139.094589,140.508514 138.660934,139.866211 138.392090,138.933884 
	C138.968460,139.289093 139.380051,139.934357 139.659943,140.865204 
z"/>
<path fill="#CBBFEB" opacity="1.000000" stroke="none" 
	d="
M156.164307,144.218262 
	C158.463486,142.667770 160.499680,141.372299 162.680786,139.984634 
	C165.323318,143.731323 166.581177,147.577393 163.565643,150.564346 
	C162.278625,151.839157 158.257187,151.439026 156.082352,150.459229 
	C153.315720,149.212799 153.411942,146.570511 156.164307,144.218262 
z"/>
<path fill="#D477D5" opacity="1.000000" stroke="none" 
	d="
M192.428436,111.905579 
	C191.582367,111.282043 191.102722,110.680878 190.306793,110.046288 
	C188.922989,109.660873 187.855453,109.308884 186.398499,108.658920 
	C185.668106,107.917030 185.327118,107.473114 184.986145,107.029198 
	C183.521698,102.639801 184.444778,101.345512 188.590836,102.183815 
	C189.864197,102.441277 191.087875,103.070366 192.261642,103.671234 
	C196.066238,105.618858 199.442398,106.863510 202.045227,101.676086 
	C203.430435,98.915390 206.698883,97.712616 209.147202,99.814308 
	C210.018906,100.562607 208.622955,104.159264 207.980392,106.373970 
	C207.678177,107.415565 206.709335,108.263748 205.974930,109.542450 
	C202.562332,110.583687 199.217392,111.282051 195.437943,111.981850 
	C194.267242,111.964844 193.531052,111.946396 192.428436,111.905579 
z"/>
<path fill="#B17CB9" opacity="1.000000" stroke="none" 
	d="
M185.012573,107.328247 
	C185.327118,107.473114 185.668106,107.917030 186.056213,108.650726 
	C185.748581,108.502769 185.393799,108.065033 185.012573,107.328247 
z"/>
<path fill="#4B4753" opacity="1.000000" stroke="none" 
	d="
M335.635681,140.739838 
	C335.621552,140.984207 335.497009,141.115891 335.372437,141.247589 
	C335.423401,141.040787 335.474335,140.833969 335.635681,140.739838 
z"/>
<path fill="#D0C3F1" opacity="1.000000" stroke="none" 
	d="
M368.981445,138.981171 
	C370.657288,139.108627 372.341736,139.248520 374.269348,139.742157 
	C372.819275,140.255432 371.126099,140.414948 369.229004,140.040192 
	C369.006042,139.329102 368.987030,139.152283 368.968048,138.975449 
	C368.968048,138.975449 368.990051,138.993591 368.981445,138.981171 
z"/>
<path fill="#777087" opacity="1.000000" stroke="none" 
	d="
M368.711060,139.026367 
	C368.987030,139.152283 369.006042,139.329102 368.987610,139.770203 
	C368.784821,139.715393 368.619446,139.396347 368.711060,139.026367 
z"/>
<path fill="#DDA6E2" opacity="1.000000" stroke="none" 
	d="
M264.000000,143.993896 
	C262.267181,144.327560 260.534393,144.661240 258.391510,144.617691 
	C256.968811,143.505951 255.956177,142.771408 254.960022,142.014221 
	C254.976486,141.991577 254.964325,142.044647 254.971344,141.650406 
	C253.402267,137.449982 251.606796,133.712463 254.848633,129.760040 
	C255.614670,128.826080 255.631180,127.277328 255.992462,126.011375 
	C266.796448,126.152245 277.600464,126.293106 288.227509,126.755051 
	C285.355957,127.134888 282.661346,127.193657 279.646179,127.199661 
	C278.894012,127.175697 278.462433,127.204483 277.685913,127.172195 
	C276.312500,127.368973 275.283997,127.626831 273.915039,128.023544 
	C271.659515,128.128174 269.744354,128.093918 267.449219,128.053467 
	C266.042053,128.037842 265.014893,128.028412 263.879883,127.812149 
	C263.429169,127.618568 263.086365,127.631821 262.743530,127.645073 
	C263.169678,127.756561 263.595825,127.868050 264.035339,128.195465 
	C264.048706,128.411377 264.054810,128.844009 264.079071,129.270935 
	C264.406342,133.478928 264.709320,137.260010 265.008484,141.277512 
	C265.004669,141.513931 265.035065,141.985855 264.783997,142.150940 
	C264.355286,142.875305 264.177643,143.434601 264.000000,143.993896 
M261.589111,142.517319 
	C261.589111,142.517319 261.476959,142.584213 261.589111,142.517319 
z"/>
<path fill="#E5A0DE" opacity="1.000000" stroke="none" 
	d="
M235.023514,143.013535 
	C232.608093,143.310486 230.192688,143.607437 226.951538,143.952271 
	C223.750534,143.665848 221.375259,143.331558 219.275452,142.883972 
	C220.289963,142.510025 221.029037,142.249359 222.047821,142.277710 
	C225.925186,143.578735 224.805588,140.800125 225.050400,139.153473 
	C225.648849,135.128601 226.218185,131.099380 227.096344,127.051727 
	C227.591782,127.021759 227.790085,127.011993 227.992065,127.392776 
	C229.251022,129.799805 230.506317,131.816269 231.761612,133.832748 
	C233.203720,131.973801 234.689453,130.146271 236.063492,128.238297 
	C236.523254,127.599899 236.697876,126.756172 237.002838,126.006302 
	C239.043045,126.004089 241.083252,126.001877 243.668488,126.260330 
	C244.474869,127.015472 244.736206,127.509941 244.669647,128.003693 
	C243.904572,128.002274 243.467361,128.001587 242.697266,128.025665 
	C241.550797,128.392242 240.737259,128.734039 239.631470,129.355164 
	C239.242722,133.722778 239.146225,137.811050 238.825851,142.187378 
	C237.409149,142.654785 236.216339,142.834152 235.023514,143.013535 
z"/>
<path fill="#E2A2DF" opacity="1.000000" stroke="none" 
	d="
M219.000000,142.997253 
	C221.375259,143.331558 223.750534,143.665848 226.553406,144.001312 
	C226.585938,144.285049 226.182922,144.824295 225.796967,144.812347 
	C217.804413,144.565155 209.803619,144.390411 201.835342,143.790970 
	C200.811707,143.713943 198.910461,140.985107 199.217804,140.140152 
	C200.262222,137.268738 200.629684,134.759628 199.128204,131.947525 
	C198.824005,131.377747 199.876938,130.083374 200.642792,129.449005 
	C202.057175,131.391220 202.811508,133.457214 204.288147,134.512665 
	C206.241547,135.908875 208.994888,136.182541 210.957184,137.570831 
	C212.364655,138.566589 213.039200,140.598358 214.363998,142.674545 
	C214.221863,142.725357 215.131027,142.400391 216.246918,142.325439 
	C217.302444,142.716064 218.151215,142.856659 219.000000,142.997253 
z"/>
<path fill="#E796DA" opacity="1.000000" stroke="none" 
	d="
M283.001221,142.994598 
	C282.255707,142.994659 281.510193,142.994736 280.385376,143.006851 
	C280.006073,143.018906 280.022278,143.022720 280.049591,142.555389 
	C280.054016,137.398056 280.031158,132.708038 280.445557,127.992416 
	C282.529633,127.955780 284.198822,127.765793 285.818939,127.968407 
	C290.121002,128.506424 290.620239,130.554291 287.755035,136.997818 
	C284.203796,137.768112 282.480896,139.556946 283.001221,142.994598 
z"/>
<path fill="#E5A0DE" opacity="1.000000" stroke="none" 
	d="
M204.013153,127.882568 
	C204.013153,127.882568 204.019775,127.441353 204.450333,127.220993 
	C207.251297,126.674339 209.621719,126.348038 211.992126,126.021729 
	C213.414017,126.341820 214.835892,126.661903 216.832993,127.251389 
	C218.276871,127.682961 219.145538,127.845139 220.007446,128.440186 
	C221.100510,132.776871 218.518784,134.866425 215.670715,136.863708 
	C212.631516,135.540344 209.675446,134.692062 207.303787,133.016556 
	C205.765610,131.929871 205.080490,129.635712 204.013153,127.882568 
M214.071411,133.659393 
	C213.201233,128.004272 209.840454,126.413582 205.323761,130.000504 
	C208.140915,131.271591 210.768600,132.457199 214.071411,133.659393 
z"/>
<path fill="#E796DA" opacity="1.000000" stroke="none" 
	d="
M267.829224,128.059662 
	C269.744354,128.093918 271.659515,128.128174 274.205475,128.064850 
	C275.557098,128.311844 276.277863,128.656403 277.000916,129.466064 
	C277.003754,133.229935 276.743622,136.560745 277.143250,139.810410 
	C277.287262,140.981476 279.016479,141.957626 280.022278,143.022720 
	C280.022278,143.022720 280.006073,143.018906 280.014374,143.031525 
	C278.181061,143.210510 276.339417,143.376877 274.364319,142.987350 
	C273.770996,141.808914 273.405609,141.069290 272.822815,140.599167 
	C272.315002,140.189529 271.561890,140.083939 271.079041,139.496658 
	C273.431854,134.428864 271.447662,130.992874 267.829224,128.059662 
z"/>
<path fill="#E796DA" opacity="1.000000" stroke="none" 
	d="
M243.030167,128.000900 
	C243.467361,128.001587 243.904572,128.002274 245.015167,128.035080 
	C246.792374,128.377319 247.896179,128.687439 249.005585,129.267731 
	C249.021744,129.717773 249.032318,129.897614 248.880920,130.405304 
	C245.863846,136.506058 246.386917,138.421646 252.067520,142.995972 
	C250.003036,142.998978 247.938538,143.001968 245.040039,142.916168 
	C243.814087,137.885223 243.422119,132.943069 243.030167,128.000900 
z"/>
<path fill="#FAE7F5" opacity="1.000000" stroke="none" 
	d="
M203.698456,127.945831 
	C205.080490,129.635712 205.765610,131.929871 207.303787,133.016556 
	C209.675446,134.692062 212.631516,135.540344 215.937042,137.100525 
	C216.369659,138.999481 216.204910,140.537445 216.040161,142.075439 
	C215.131027,142.400391 214.221863,142.725357 214.363998,142.674545 
	C213.039200,140.598358 212.364655,138.566589 210.957184,137.570831 
	C208.994888,136.182541 206.241547,135.908875 204.288147,134.512665 
	C202.811508,133.457214 202.057175,131.391220 201.009674,129.384430 
	C201.819901,128.665619 202.601822,128.337357 203.698456,127.945831 
z"/>
<path fill="#F2B5E3" opacity="1.000000" stroke="none" 
	d="
M242.697266,128.025665 
	C243.422119,132.943069 243.814087,137.885223 244.600769,142.923920 
	C241.855225,143.211136 238.714966,143.401794 235.299103,143.302994 
	C236.216339,142.834152 237.409149,142.654785 239.123901,141.916763 
	C239.738449,137.264023 239.831070,133.169922 239.923706,129.075836 
	C240.737259,128.734039 241.550797,128.392242 242.697266,128.025665 
z"/>
<path fill="#DDA6E2" opacity="1.000000" stroke="none" 
	d="
M236.610901,126.010406 
	C236.697876,126.756172 236.523254,127.599899 236.063492,128.238297 
	C234.689453,130.146271 233.203720,131.973801 231.761612,133.832748 
	C230.506317,131.816269 229.251022,129.799805 227.995819,127.143997 
	C227.995926,126.504654 227.996582,126.007103 227.996582,126.007103 
	C230.737381,126.009575 233.478165,126.012047 236.610901,126.010406 
z"/>
<path fill="#FAE7F5" opacity="1.000000" stroke="none" 
	d="
M252.309998,143.007446 
	C246.386917,138.421646 245.863846,136.506058 249.179611,130.245972 
	C252.831100,128.379120 251.501282,130.355301 251.245529,131.804565 
	C250.523300,135.897324 250.537354,139.791885 254.964325,142.044647 
	C254.964325,142.044647 254.976486,141.991577 254.956726,142.245117 
	C254.936951,142.498657 254.919754,142.960739 254.685028,142.993973 
	C254.450287,143.027206 253.981659,143.099472 253.745667,143.075500 
	C253.509689,143.051529 253.035553,143.067307 253.035553,143.067307 
	C253.035553,143.067307 252.552475,143.018921 252.309998,143.007446 
z"/>
<path fill="#E5A0DE" opacity="1.000000" stroke="none" 
	d="
M254.971344,141.650406 
	C250.537354,139.791885 250.523300,135.897324 251.245529,131.804565 
	C251.501282,130.355301 252.831100,128.379120 249.341553,129.918121 
	C249.032318,129.897614 249.021744,129.717773 249.006012,129.012665 
	C249.002655,128.317337 249.004425,128.147263 249.006195,127.977203 
	C251.092682,127.345711 253.179184,126.714233 255.629059,126.047058 
	C255.631180,127.277328 255.614670,128.826080 254.848633,129.760040 
	C251.606796,133.712463 253.402267,137.449982 254.971344,141.650406 
z"/>
<path fill="#FAE7F5" opacity="1.000000" stroke="none" 
	d="
M288.134918,136.951660 
	C290.620239,130.554291 290.121002,128.506424 285.818939,127.968407 
	C284.198822,127.765793 282.529633,127.955780 280.434692,127.800949 
	C279.986572,127.635101 279.966736,127.252419 279.966736,127.252419 
	C282.661346,127.193657 285.355957,127.134888 288.496460,127.072601 
	C288.942383,127.069077 288.965149,127.042336 289.170776,127.301529 
	C290.243713,127.724442 291.111084,127.888161 291.978424,128.051880 
	C291.978424,128.051880 291.990387,127.996780 292.130737,128.331757 
	C295.071350,131.279968 293.939697,133.639557 291.802246,135.934250 
	C291.295105,136.071304 290.787994,136.208359 289.815002,136.605255 
	C288.944427,136.893951 288.539673,136.922806 288.134918,136.951660 
z"/>
<path fill="#DDA6E2" opacity="1.000000" stroke="none" 
	d="
M292.200775,135.954651 
	C293.939697,133.639557 295.071350,131.279968 292.114838,128.355438 
	C293.620911,129.255295 295.283264,130.466431 296.945618,131.677551 
	C295.496857,133.110046 294.048065,134.542557 292.200775,135.954651 
z"/>
<path fill="#E5A0DE" opacity="1.000000" stroke="none" 
	d="
M270.917175,139.844025 
	C271.561890,140.083939 272.315002,140.189529 272.822815,140.599167 
	C273.405609,141.069290 273.770996,141.808914 274.113586,142.718964 
	C270.939148,143.331787 267.881989,143.657135 264.412415,143.988190 
	C264.177643,143.434601 264.355286,142.875305 265.141602,142.161926 
	C267.472565,141.286560 269.194855,140.565292 270.917175,139.844025 
z"/>
<path fill="#DDA6E2" opacity="1.000000" stroke="none" 
	d="
M287.755035,136.997818 
	C288.539673,136.922806 288.944427,136.893951 289.651123,136.816864 
	C287.880035,138.841827 285.806976,140.915024 283.367554,142.991394 
	C282.480896,139.556946 284.203796,137.768112 287.755035,136.997818 
z"/>
<path fill="#E2A2DF" opacity="1.000000" stroke="none" 
	d="
M227.543976,126.003525 
	C227.996582,126.007103 227.995926,126.504654 227.992157,126.753433 
	C227.790085,127.011993 227.591782,127.021759 226.706772,127.059196 
	C224.070221,127.350311 222.120377,127.613762 220.131836,127.910202 
	C220.093140,127.943184 220.014206,128.007309 220.014206,128.007309 
	C219.145538,127.845139 218.276871,127.682961 217.201965,127.255463 
	C220.360931,126.660065 223.726151,126.330009 227.543976,126.003525 
z"/>
<path fill="#DDA6E2" opacity="1.000000" stroke="none" 
	d="
M248.931915,127.610664 
	C249.004425,128.147263 249.002655,128.317337 249.000427,128.742477 
	C247.896179,128.687439 246.792374,128.377319 245.343048,128.035797 
	C244.736206,127.509941 244.474869,127.015472 244.105682,126.262390 
	C245.617752,126.417229 247.237686,126.830681 248.931915,127.610664 
z"/>
<path fill="#E2A2DF" opacity="1.000000" stroke="none" 
	d="
M211.563660,126.015068 
	C209.621719,126.348038 207.251297,126.674339 204.454834,127.000412 
	C206.397568,126.669586 208.766388,126.338997 211.563660,126.015068 
z"/>
<path fill="#E5A0DE" opacity="1.000000" stroke="none" 
	d="
M254.919754,142.960739 
	C254.919754,142.960739 254.936951,142.498657 254.940247,142.267761 
	C255.956177,142.771408 256.968811,143.505951 257.986450,144.613159 
	C257.437347,144.823105 256.883270,144.660370 256.045929,144.022308 
	C255.481720,143.351562 255.200745,143.156158 254.919754,142.960739 
z"/>
<path fill="#DDA6E2" opacity="1.000000" stroke="none" 
	d="
M291.785339,127.772720 
	C291.111084,127.888161 290.243713,127.724442 289.169250,127.298538 
	C289.838806,127.188759 290.715515,127.341164 291.785339,127.772720 
z"/>
<path fill="#DDA6E2" opacity="1.000000" stroke="none" 
	d="
M254.685028,142.993973 
	C255.200745,143.156158 255.481720,143.351562 255.877029,143.779922 
	C255.547913,144.009308 255.104462,144.005737 254.326813,143.774872 
	C253.992599,143.547592 253.981659,143.099472 253.981659,143.099472 
	C253.981659,143.099472 254.450287,143.027206 254.685028,142.993973 
z"/>
<path fill="#E796DA" opacity="1.000000" stroke="none" 
	d="
M253.745667,143.075500 
	C253.981659,143.099472 253.992599,143.547592 253.994171,143.771667 
	C253.685349,143.909775 253.431030,143.739914 253.134155,143.276733 
	C253.035553,143.067307 253.509689,143.051529 253.745667,143.075500 
z"/>
<path fill="#FAE7F5" opacity="1.000000" stroke="none" 
	d="
M271.079041,139.496674 
	C269.194855,140.565292 267.472565,141.286560 265.392639,141.996857 
	C265.035065,141.985855 265.004669,141.513931 265.333557,141.109253 
	C269.275024,135.652786 268.750977,131.786499 264.054810,128.844009 
	C264.054810,128.844009 264.048706,128.411377 264.025635,128.204590 
	C264.002563,127.997803 263.987732,128.018982 263.987732,128.018982 
	C265.014893,128.028412 266.042053,128.037842 267.449219,128.053467 
	C271.447662,130.992874 273.431854,134.428864 271.079041,139.496674 
z"/>
<path fill="#FCF2FA" opacity="1.000000" stroke="none" 
	d="
M279.646179,127.199661 
	C279.966736,127.252419 279.986572,127.635101 279.997437,127.826569 
	C280.031158,132.708038 280.054016,137.398056 280.049591,142.555389 
	C279.016479,141.957626 277.287262,140.981476 277.143250,139.810410 
	C276.743622,136.560745 277.003754,133.229935 277.233063,129.322418 
	C277.652222,128.220184 277.841522,127.726730 278.030823,127.233269 
	C278.462433,127.204483 278.894012,127.175697 279.646179,127.199661 
z"/>
<path fill="#E5A0DE" opacity="1.000000" stroke="none" 
	d="
M264.079071,129.270935 
	C268.750977,131.786499 269.275024,135.652786 265.337341,140.872833 
	C264.709320,137.260010 264.406342,133.478928 264.079071,129.270935 
z"/>
<path fill="#FAE7F5" opacity="1.000000" stroke="none" 
	d="
M277.685913,127.172195 
	C277.841522,127.726730 277.652222,128.220184 277.230774,128.857300 
	C276.277863,128.656403 275.557098,128.311844 274.545898,127.925987 
	C275.283997,127.626831 276.312500,127.368973 277.685913,127.172195 
z"/>
<path fill="#FAE7F5" opacity="1.000000" stroke="none" 
	d="
M264.012268,127.988670 
	C263.595825,127.868050 263.169678,127.756561 262.743530,127.645073 
	C263.086365,127.631821 263.429169,127.618568 263.879883,127.812149 
	C263.987732,128.018982 264.002563,127.997803 264.012268,127.988670 
z"/>
<path fill="#E5A0DE" opacity="1.000000" stroke="none" 
	d="
M261.533020,142.550766 
	C261.476959,142.584213 261.589111,142.517319 261.533020,142.550766 
z"/>
<path fill="#E796DA" opacity="1.000000" stroke="none" 
	d="
M216.246918,142.325439 
	C216.204910,140.537445 216.369659,138.999481 216.268066,137.224686 
	C218.518784,134.866425 221.100510,132.776871 220.007446,128.440186 
	C220.014206,128.007309 220.093140,127.943184 220.508026,128.034744 
	C221.204636,132.747101 221.486374,137.367905 221.768112,141.988693 
	C221.029037,142.249359 220.289963,142.510025 219.275452,142.883972 
	C218.151215,142.856659 217.302444,142.716064 216.246918,142.325439 
z"/>
<path fill="#FCF2FA" opacity="1.000000" stroke="none" 
	d="
M222.047821,142.277710 
	C221.486374,137.367905 221.204636,132.747101 220.546722,128.001770 
	C222.120377,127.613762 224.070221,127.350311 226.409637,127.079391 
	C226.218185,131.099380 225.648849,135.128601 225.050400,139.153473 
	C224.805588,140.800125 225.925186,143.578735 222.047821,142.277710 
z"/>
<path fill="#FAE7F5" opacity="1.000000" stroke="none" 
	d="
M239.631454,129.355164 
	C239.831070,133.169922 239.738449,137.264023 239.347778,141.628723 
	C239.146225,137.811050 239.242722,133.722778 239.631454,129.355164 
z"/>
<path fill="#E2A2DF" opacity="1.000000" stroke="none" 
	d="
M213.733841,133.651093 
	C210.768600,132.457199 208.140915,131.271591 205.323761,130.000504 
	C209.840454,126.413582 213.201233,128.004272 213.733841,133.651093 
z"/>
</svg>